<?xml version="1.0" encoding="UTF-8" standalone="no"?>
<!DOCTYPE svg PUBLIC "-//W3C//DTD SVG 1.1//EN"
 "http://www.w3.org/Graphics/SVG/1.1/DTD/svg11.dtd">
<!-- Generated by graphviz version 2.40.1 (20161225.0304)
 -->
<!-- Title: G Pages: 1 -->
<svg width="595pt" height="496pt"
 viewBox="0.00 0.00 595.45 496.00" xmlns="http://www.w3.org/2000/svg" xmlns:xlink="http://www.w3.org/1999/xlink">
<g id="graph0" class="graph" transform="scale(1 1) rotate(0) translate(4 492)">
<title>G</title>
<polygon fill="#ffffff" stroke="transparent" points="-4,4 -4,-492 591.4526,-492 591.4526,4 -4,4"/>
<g id="clust1" class="cluster">
<title>cluster_Global</title>
<path fill="none" stroke="#c0c0c0" d="M20,-44C20,-44 567.4526,-44 567.4526,-44 573.4526,-44 579.4526,-50 579.4526,-56 579.4526,-56 579.4526,-468 579.4526,-468 579.4526,-474 573.4526,-480 567.4526,-480 567.4526,-480 20,-480 20,-480 14,-480 8,-474 8,-468 8,-468 8,-56 8,-56 8,-50 14,-44 20,-44"/>
<text text-anchor="middle" x="293.7263" y="-467.2" font-family="Times,serif" font-size="11.00" fill="#c0c0c0">Global</text>
</g>
<g id="clust2" class="cluster">
<title>cluster_\maxh</title>
<path fill="none" stroke="#c0c0c0" d="M28,-52C28,-52 559.4526,-52 559.4526,-52 565.4526,-52 571.4526,-58 571.4526,-64 571.4526,-64 571.4526,-441 571.4526,-441 571.4526,-447 565.4526,-453 559.4526,-453 559.4526,-453 28,-453 28,-453 22,-453 16,-447 16,-441 16,-441 16,-64 16,-64 16,-58 22,-52 28,-52"/>
<text text-anchor="middle" x="293.7263" y="-440.2" font-family="Times,serif" font-size="11.00" fill="#c0c0c0">maxh</text>
</g>
<g id="clust3" class="cluster">
<title>cluster_\maxh\Nominatim</title>
<path fill="none" stroke="#c0c0c0" d="M36,-60C36,-60 551.4526,-60 551.4526,-60 557.4526,-60 563.4526,-66 563.4526,-72 563.4526,-72 563.4526,-414 563.4526,-414 563.4526,-420 557.4526,-426 551.4526,-426 551.4526,-426 36,-426 36,-426 30,-426 24,-420 24,-414 24,-414 24,-72 24,-72 24,-66 30,-60 36,-60"/>
<text text-anchor="middle" x="293.7263" y="-413.2" font-family="Times,serif" font-size="11.00" fill="#c0c0c0">Nominatim</text>
</g>
<g id="clust4" class="cluster">
<title>cluster_\maxh\Nominatim\Exceptions</title>
<path fill="none" stroke="#c0c0c0" d="M370.4258,-68C370.4258,-68 543.4526,-68 543.4526,-68 549.4526,-68 555.4526,-74 555.4526,-80 555.4526,-80 555.4526,-181 555.4526,-181 555.4526,-187 549.4526,-193 543.4526,-193 543.4526,-193 370.4258,-193 370.4258,-193 364.4258,-193 358.4258,-187 358.4258,-181 358.4258,-181 358.4258,-80 358.4258,-80 358.4258,-74 364.4258,-68 370.4258,-68"/>
<text text-anchor="middle" x="456.9392" y="-180.2" font-family="Times,serif" font-size="11.00" fill="#c0c0c0">Exceptions</text>
</g>
<!-- \\maxh\\Nominatim\\Exceptions\\NominatimException -->
<g id="node1" class="node">
<title>\\maxh\\Nominatim\\Exceptions\\NominatimException</title>
<polygon fill="none" stroke="#000000" points="524.2587,-166 389.6198,-166 389.6198,-130 524.2587,-130 524.2587,-166"/>
<text text-anchor="middle" x="456.9392" y="-144.7" font-family="Courier,monospace" font-size="11.00" fill="#000000">NominatimException</text>
</g>
<!-- \\Exception -->
<g id="node9" class="node">
<title>\\Exception</title>
<ellipse fill="none" stroke="#000000" cx="253.4204" cy="-18" rx="40.6162" ry="18"/>
<text text-anchor="middle" x="253.4204" y="-13.8" font-family="Times,serif" font-size="14.00" fill="#c0c0c0">xception</text>
</g>
<!-- \\maxh\\Nominatim\\Exceptions\\NominatimException&#45;&gt;\\Exception -->
<g id="edge2" class="edge">
<title>\\maxh\\Nominatim\\Exceptions\\NominatimException&#45;&gt;\\Exception</title>
<path fill="none" stroke="#000000" d="M389.5618,-134.6511C378.7514,-131.0844 367.987,-126.6063 358.4258,-121 323.4526,-100.4932 323.5239,-84.2304 294.4258,-56 289.4646,-51.1867 284.0902,-46.1106 278.9165,-41.2903"/>
<polygon fill="none" stroke="#000000" points="281.2673,-38.697 271.5515,-34.4716 276.5117,-43.8336 281.2673,-38.697"/>
</g>
<!-- \\maxh\\Nominatim\\Exceptions\\InvalidParameterException -->
<g id="node2" class="node">
<title>\\maxh\\Nominatim\\Exceptions\\InvalidParameterException</title>
<polygon fill="none" stroke="#000000" points="547.4661,-112 366.4124,-112 366.4124,-76 547.4661,-76 547.4661,-112"/>
<text text-anchor="middle" x="456.9392" y="-90.7" font-family="Courier,monospace" font-size="11.00" fill="#000000">InvalidParameterException</text>
</g>
<!-- \\maxh\\Nominatim\\Exceptions\\InvalidParameterException&#45;&gt;\\Exception -->
<g id="edge3" class="edge">
<title>\\maxh\\Nominatim\\Exceptions\\InvalidParameterException&#45;&gt;\\Exception</title>
<path fill="none" stroke="#000000" d="M408.7081,-75.9891C373.8742,-62.9811 327.3416,-45.6044 294.3222,-33.2739"/>
<polygon fill="none" stroke="#000000" points="295.129,-29.8392 284.5365,-29.6197 292.6802,-36.3969 295.129,-29.8392"/>
</g>
<!-- \\maxh\\Nominatim\\Lookup -->
<g id="node3" class="node">
<title>\\maxh\\Nominatim\\Lookup</title>
<polygon fill="none" stroke="#000000" points="484.547,-291 429.3314,-291 429.3314,-255 484.547,-255 484.547,-291"/>
<text text-anchor="middle" x="456.9392" y="-269.7" font-family="Courier,monospace" font-size="11.00" fill="#000000">Lookup</text>
</g>
<!-- \\maxh\\Nominatim\\Query -->
<g id="node7" class="node">
<title>\\maxh\\Nominatim\\Query</title>
<polygon fill="none" stroke="#000000" points="294.4312,-345 212.4097,-345 212.4097,-309 294.4312,-309 294.4312,-345"/>
<text text-anchor="start" x="220.415" y="-329.2" font-family="Courier,monospace" font-size="11.00" fill="#000000">«abstract»</text>
<text text-anchor="start" x="236.9177" y="-318.2" font-family="Courier,monospace" font-size="11.00" fill="#000000">Query</text>
</g>
<!-- \\maxh\\Nominatim\\Lookup&#45;&gt;\\maxh\\Nominatim\\Query -->
<g id="edge1" class="edge">
<title>\\maxh\\Nominatim\\Lookup&#45;&gt;\\maxh\\Nominatim\\Query</title>
<path fill="none" stroke="#000000" d="M429.0675,-280.3952C397.0528,-288.8898 343.8684,-303.0013 304.3945,-313.475"/>
<polygon fill="none" stroke="#000000" points="303.4433,-310.1061 294.6754,-316.0537 305.2386,-316.872 303.4433,-310.1061"/>
</g>
<!-- \\maxh\\Nominatim\\Search -->
<g id="node4" class="node">
<title>\\maxh\\Nominatim\\Search</title>
<polygon fill="none" stroke="#000000" points="484.547,-399 429.3314,-399 429.3314,-363 484.547,-363 484.547,-399"/>
<text text-anchor="middle" x="456.9392" y="-377.7" font-family="Courier,monospace" font-size="11.00" fill="#000000">Search</text>
</g>
<!-- \\maxh\\Nominatim\\Search&#45;&gt;\\maxh\\Nominatim\\Query -->
<g id="edge4" class="edge">
<title>\\maxh\\Nominatim\\Search&#45;&gt;\\maxh\\Nominatim\\Query</title>
<path fill="none" stroke="#000000" d="M429.0675,-373.6048C397.0528,-365.1102 343.8684,-350.9987 304.3945,-340.525"/>
<polygon fill="none" stroke="#000000" points="305.2386,-337.128 294.6754,-337.9463 303.4433,-343.8939 305.2386,-337.128"/>
</g>
<!-- \\maxh\\Nominatim\\Nominatim -->
<g id="node5" class="node">
<title>\\maxh\\Nominatim\\Nominatim</title>
<polygon fill="none" stroke="#000000" points="494.85,-237 419.0284,-237 419.0284,-201 494.85,-201 494.85,-237"/>
<text text-anchor="middle" x="456.9392" y="-215.7" font-family="Courier,monospace" font-size="11.00" fill="#000000">Nominatim</text>
</g>
<!-- \\maxh\\Nominatim\\Reverse -->
<g id="node6" class="node">
<title>\\maxh\\Nominatim\\Reverse</title>
<polygon fill="none" stroke="#000000" points="488.1471,-345 425.7313,-345 425.7313,-309 488.1471,-309 488.1471,-345"/>
<text text-anchor="middle" x="456.9392" y="-323.7" font-family="Courier,monospace" font-size="11.00" fill="#000000">Reverse</text>
</g>
<!-- \\maxh\\Nominatim\\Reverse&#45;&gt;\\maxh\\Nominatim\\Query -->
<g id="edge5" class="edge">
<title>\\maxh\\Nominatim\\Reverse&#45;&gt;\\maxh\\Nominatim\\Query</title>
<path fill="none" stroke="#000000" d="M425.5854,-327C393.4809,-327 343.0376,-327 305.0348,-327"/>
<polygon fill="none" stroke="#000000" points="304.6716,-323.5001 294.6715,-327 304.6715,-330.5001 304.6716,-323.5001"/>
</g>
<!-- \\maxh\\Nominatim\\QueryInterface -->
<g id="node8" class="node">
<title>\\maxh\\Nominatim\\QueryInterface</title>
<polygon fill="none" stroke="#000000" points="140.6234,-345 31.7917,-345 31.7917,-309 140.6234,-309 140.6234,-345"/>
<text text-anchor="middle" x="86.2075" y="-323.7" font-family="Courier,monospace" font-size="11.00" fill="#000000">QueryInterface</text>
</g>
<!-- \\maxh\\Nominatim\\Query&#45;&gt;\\maxh\\Nominatim\\QueryInterface -->
<g id="edge6" class="edge">
<title>\\maxh\\Nominatim\\Query&#45;&gt;\\maxh\\Nominatim\\QueryInterface</title>
<path fill="none" stroke="#000000" stroke-dasharray="1,5" d="M212.0869,-327C193.6372,-327 171.4605,-327 150.8954,-327"/>
<polygon fill="none" stroke="#000000" points="150.6358,-323.5001 140.6358,-327 150.6357,-330.5001 150.6358,-323.5001"/>
</g>
</g>
</svg>
