<?xml version="1.0" encoding="UTF-8" standalone="no"?>
<!DOCTYPE svg PUBLIC "-//W3C//DTD SVG 1.1//EN"
 "http://www.w3.org/Graphics/SVG/1.1/DTD/svg11.dtd">
<!-- Generated by graphviz version 2.38.0 (20140413.2041)
 -->
<!-- Title: G Pages: 1 -->
<svg width="604pt" height="500pt"
 viewBox="0.00 0.00 604.49 500.00" xmlns="http://www.w3.org/2000/svg" xmlns:xlink="http://www.w3.org/1999/xlink">
<g id="graph0" class="graph" transform="scale(1 1) rotate(0) translate(4 496)">
<title>G</title>
<polygon fill="white" stroke="none" points="-4,4 -4,-496 600.493,-496 600.493,4 -4,4"/>
<g id="clust1" class="cluster"><title>cluster_Global</title>
<path fill="none" stroke="gray" d="M20,-44C20,-44 576.493,-44 576.493,-44 582.493,-44 588.493,-50 588.493,-56 588.493,-56 588.493,-472 588.493,-472 588.493,-478 582.493,-484 576.493,-484 576.493,-484 20,-484 20,-484 14,-484 8,-478 8,-472 8,-472 8,-56 8,-56 8,-50 14,-44 20,-44"/>
<text text-anchor="middle" x="298.246" y="-471.2" font-family="Times New Roman,serif" font-size="11.00" fill="gray">Global</text>
</g>
<g id="clust2" class="cluster"><title>cluster_\maxh</title>
<path fill="none" stroke="gray" d="M28,-52C28,-52 568.493,-52 568.493,-52 574.493,-52 580.493,-58 580.493,-64 580.493,-64 580.493,-444 580.493,-444 580.493,-450 574.493,-456 568.493,-456 568.493,-456 28,-456 28,-456 22,-456 16,-450 16,-444 16,-444 16,-64 16,-64 16,-58 22,-52 28,-52"/>
<text text-anchor="middle" x="298.246" y="-443.2" font-family="Times New Roman,serif" font-size="11.00" fill="gray">maxh</text>
</g>
<g id="clust3" class="cluster"><title>cluster_\maxh\Nominatim</title>
<path fill="none" stroke="gray" d="M36,-60C36,-60 560.493,-60 560.493,-60 566.493,-60 572.493,-66 572.493,-72 572.493,-72 572.493,-416 572.493,-416 572.493,-422 566.493,-428 560.493,-428 560.493,-428 36,-428 36,-428 30,-428 24,-422 24,-416 24,-416 24,-72 24,-72 24,-66 30,-60 36,-60"/>
<text text-anchor="middle" x="298.246" y="-415.2" font-family="Times New Roman,serif" font-size="11.00" fill="gray">Nominatim</text>
</g>
<g id="clust4" class="cluster"><title>cluster_\maxh\Nominatim\Exceptions</title>
<path fill="none" stroke="gray" d="M375.493,-68C375.493,-68 552.493,-68 552.493,-68 558.493,-68 564.493,-74 564.493,-80 564.493,-80 564.493,-182 564.493,-182 564.493,-188 558.493,-194 552.493,-194 552.493,-194 375.493,-194 375.493,-194 369.493,-194 363.493,-188 363.493,-182 363.493,-182 363.493,-80 363.493,-80 363.493,-74 369.493,-68 375.493,-68"/>
<text text-anchor="middle" x="463.993" y="-181.2" font-family="Times New Roman,serif" font-size="11.00" fill="gray">Exceptions</text>
</g>
<!-- \\maxh\\Nominatim\\Exceptions\\NominatimException -->
<g id="node1" class="node"><title>\\maxh\\Nominatim\\Exceptions\\NominatimException</title>
<polygon fill="none" stroke="black" points="532.993,-166 394.993,-166 394.993,-130 532.993,-130 532.993,-166"/>
<text text-anchor="middle" x="463.993" y="-145.2" font-family="Courier,monospace" font-size="11.00">NominatimException</text>
</g>
<!-- \\Exception -->
<g id="node9" class="node"><title>\\Exception</title>
<ellipse fill="none" stroke="black" cx="257.246" cy="-18" rx="42.4939" ry="18"/>
<text text-anchor="middle" x="257.246" y="-14.3" font-family="Times New Roman,serif" font-size="14.00" fill="gray">xception</text>
</g>
<!-- \\maxh\\Nominatim\\Exceptions\\NominatimException&#45;&gt;\\Exception -->
<g id="edge3" class="edge"><title>\\maxh\\Nominatim\\Exceptions\\NominatimException&#45;&gt;\\Exception</title>
<path fill="none" stroke="black" d="M394.941,-134.72C384.022,-131.145 373.15,-126.646 363.493,-121 328.493,-100.537 328.632,-84.1879 299.493,-56 294.509,-51.1788 289.105,-46.0991 283.902,-41.2779"/>
<polygon fill="none" stroke="black" points="286.222,-38.6561 276.494,-34.4594 281.481,-43.8067 286.222,-38.6561"/>
</g>
<!-- \\maxh\\Nominatim\\Exceptions\\InvalidParameterException -->
<g id="node2" class="node"><title>\\maxh\\Nominatim\\Exceptions\\InvalidParameterException</title>
<polygon fill="none" stroke="black" points="556.493,-112 371.493,-112 371.493,-76 556.493,-76 556.493,-112"/>
<text text-anchor="middle" x="463.993" y="-91.2" font-family="Courier,monospace" font-size="11.00">InvalidParameterException</text>
</g>
<!-- \\maxh\\Nominatim\\Exceptions\\InvalidParameterException&#45;&gt;\\Exception -->
<g id="edge4" class="edge"><title>\\maxh\\Nominatim\\Exceptions\\InvalidParameterException&#45;&gt;\\Exception</title>
<path fill="none" stroke="black" d="M414.47,-75.9891C379.276,-62.925 332.21,-45.4545 298.966,-33.1148"/>
<polygon fill="none" stroke="black" points="300.143,-29.8184 289.55,-29.6197 297.707,-36.3809 300.143,-29.8184"/>
</g>
<!-- \\maxh\\Nominatim\\Nominatim -->
<g id="node3" class="node"><title>\\maxh\\Nominatim\\Nominatim</title>
<polygon fill="none" stroke="black" points="502.493,-346 425.493,-346 425.493,-310 502.493,-310 502.493,-346"/>
<text text-anchor="middle" x="463.993" y="-325.2" font-family="Courier,monospace" font-size="11.00">Nominatim</text>
</g>
<!-- \\maxh\\Nominatim\\Search -->
<g id="node4" class="node"><title>\\maxh\\Nominatim\\Search</title>
<polygon fill="none" stroke="black" points="492.493,-238 435.493,-238 435.493,-202 492.493,-202 492.493,-238"/>
<text text-anchor="middle" x="463.993" y="-217.2" font-family="Courier,monospace" font-size="11.00">Search</text>
</g>
<!-- \\maxh\\Nominatim\\Query -->
<g id="node7" class="node"><title>\\maxh\\Nominatim\\Query</title>
<polygon fill="none" stroke="black" points="284.246,-292 230.246,-292 230.246,-256 284.246,-256 284.246,-292"/>
<text text-anchor="middle" x="257.246" y="-271.2" font-family="Courier,monospace" font-size="11.00">Query</text>
</g>
<!-- \\maxh\\Nominatim\\Search&#45;&gt;\\maxh\\Nominatim\\Query -->
<g id="edge1" class="edge"><title>\\maxh\\Nominatim\\Search&#45;&gt;\\maxh\\Nominatim\\Query</title>
<path fill="none" stroke="black" d="M435.38,-227.283C398.852,-236.916 334.404,-253.914 294.137,-264.534"/>
<polygon fill="none" stroke="black" points="293.229,-261.154 284.452,-267.088 295.014,-267.922 293.229,-261.154"/>
</g>
<!-- \\maxh\\Nominatim\\Reverse -->
<g id="node5" class="node"><title>\\maxh\\Nominatim\\Reverse</title>
<polygon fill="none" stroke="black" points="495.993,-400 431.993,-400 431.993,-364 495.993,-364 495.993,-400"/>
<text text-anchor="middle" x="463.993" y="-379.2" font-family="Courier,monospace" font-size="11.00">Reverse</text>
</g>
<!-- \\maxh\\Nominatim\\Reverse&#45;&gt;\\maxh\\Nominatim\\Query -->
<g id="edge2" class="edge"><title>\\maxh\\Nominatim\\Reverse&#45;&gt;\\maxh\\Nominatim\\Query</title>
<path fill="none" stroke="black" d="M431.828,-376.803C411.626,-372.659 385.139,-365.737 363.493,-355 333.952,-340.347 304.571,-316.787 284.39,-298.844"/>
<polygon fill="none" stroke="black" points="286.624,-296.145 276.861,-292.029 281.926,-301.335 286.624,-296.145"/>
</g>
<!-- \\maxh\\Nominatim\\Lookup -->
<g id="node6" class="node"><title>\\maxh\\Nominatim\\Lookup</title>
<polygon fill="none" stroke="black" points="492.493,-292 435.493,-292 435.493,-256 492.493,-256 492.493,-292"/>
<text text-anchor="middle" x="463.993" y="-271.2" font-family="Courier,monospace" font-size="11.00">Lookup</text>
</g>
<!-- \\maxh\\Nominatim\\Lookup&#45;&gt;\\maxh\\Nominatim\\Query -->
<g id="edge5" class="edge"><title>\\maxh\\Nominatim\\Lookup&#45;&gt;\\maxh\\Nominatim\\Query</title>
<path fill="none" stroke="black" d="M435.38,-274C399.007,-274 334.95,-274 294.65,-274"/>
<polygon fill="none" stroke="black" points="294.452,-270.5 284.452,-274 294.452,-277.5 294.452,-270.5"/>
</g>
<!-- \\maxh\\Nominatim\\QueryInterface -->
<g id="node8" class="node"><title>\\maxh\\Nominatim\\QueryInterface</title>
<polygon fill="none" stroke="black" points="143,-292 32,-292 32,-256 143,-256 143,-292"/>
<text text-anchor="middle" x="87.5" y="-271.2" font-family="Courier,monospace" font-size="11.00">QueryInterface</text>
</g>
<!-- \\maxh\\Nominatim\\Query&#45;&gt;\\maxh\\Nominatim\\QueryInterface -->
<g id="edge6" class="edge"><title>\\maxh\\Nominatim\\Query&#45;&gt;\\maxh\\Nominatim\\QueryInterface</title>
<path fill="none" stroke="black" stroke-dasharray="1,5" d="M230.036,-274C209.527,-274 180.104,-274 153.391,-274"/>
<polygon fill="none" stroke="black" points="153.31,-270.5 143.31,-274 153.31,-277.5 153.31,-270.5"/>
</g>
</g>
</svg>
