<?xml version="1.0" encoding="UTF-8" standalone="no"?>
<!DOCTYPE svg PUBLIC "-//W3C//DTD SVG 1.1//EN"
 "http://www.w3.org/Graphics/SVG/1.1/DTD/svg11.dtd">
<!-- Generated by graphviz version 2.38.0 (20140413.2041)
 -->
<!-- Title: G Pages: 1 -->
<svg width="448pt" height="492pt"
 viewBox="0.00 0.00 448.00 492.00" xmlns="http://www.w3.org/2000/svg" xmlns:xlink="http://www.w3.org/1999/xlink">
<g id="graph0" class="graph" transform="scale(1 1) rotate(0) translate(4 488)">
<title>G</title>
<polygon fill="white" stroke="none" points="-4,4 -4,-488 444,-488 444,4 -4,4"/>
<g id="clust1" class="cluster"><title>cluster_Global</title>
<path fill="none" stroke="gray" d="M20,-44C20,-44 420,-44 420,-44 426,-44 432,-50 432,-56 432,-56 432,-464 432,-464 432,-470 426,-476 420,-476 420,-476 20,-476 20,-476 14,-476 8,-470 8,-464 8,-464 8,-56 8,-56 8,-50 14,-44 20,-44"/>
<text text-anchor="middle" x="220" y="-463.2" font-family="Times New Roman,serif" font-size="11.00" fill="gray">Global</text>
</g>
<g id="clust2" class="cluster"><title>cluster_\maxh</title>
<path fill="none" stroke="gray" d="M28,-52C28,-52 412,-52 412,-52 418,-52 424,-58 424,-64 424,-64 424,-436 424,-436 424,-442 418,-448 412,-448 412,-448 28,-448 28,-448 22,-448 16,-442 16,-436 16,-436 16,-64 16,-64 16,-58 22,-52 28,-52"/>
<text text-anchor="middle" x="220" y="-435.2" font-family="Times New Roman,serif" font-size="11.00" fill="gray">maxh</text>
</g>
<g id="clust3" class="cluster"><title>cluster_\maxh\Nominatim</title>
<path fill="none" stroke="gray" d="M36,-60C36,-60 404,-60 404,-60 410,-60 416,-66 416,-72 416,-72 416,-408 416,-408 416,-414 410,-420 404,-420 404,-420 36,-420 36,-420 30,-420 24,-414 24,-408 24,-408 24,-72 24,-72 24,-66 30,-60 36,-60"/>
<text text-anchor="middle" x="220" y="-407.2" font-family="Times New Roman,serif" font-size="11.00" fill="gray">Nominatim</text>
</g>
<g id="clust4" class="cluster"><title>cluster_\maxh\Nominatim\Exceptions</title>
<path fill="none" stroke="gray" d="M219,-114C219,-114 396,-114 396,-114 402,-114 408,-120 408,-126 408,-126 408,-228 408,-228 408,-234 402,-240 396,-240 396,-240 219,-240 219,-240 213,-240 207,-234 207,-228 207,-228 207,-126 207,-126 207,-120 213,-114 219,-114"/>
<text text-anchor="middle" x="307.5" y="-227.2" font-family="Times New Roman,serif" font-size="11.00" fill="gray">Exceptions</text>
</g>
<!-- \\maxh\\Nominatim\\Exceptions\\NominatimException -->
<g id="node1" class="node"><title>\\maxh\\Nominatim\\Exceptions\\NominatimException</title>
<polygon fill="none" stroke="black" points="376.5,-212 238.5,-212 238.5,-176 376.5,-176 376.5,-212"/>
<text text-anchor="middle" x="307.5" y="-191.2" font-family="Courier,monospace" font-size="11.00">NominatimException</text>
</g>
<!-- \\Exception -->
<g id="node8" class="node"><title>\\Exception</title>
<ellipse fill="none" stroke="black" cx="87.5" cy="-18" rx="42.4939" ry="18"/>
<text text-anchor="middle" x="87.5" y="-14.3" font-family="Times New Roman,serif" font-size="14.00" fill="gray">xception</text>
</g>
<!-- \\maxh\\Nominatim\\Exceptions\\NominatimException&#45;&gt;\\Exception -->
<g id="edge3" class="edge"><title>\\maxh\\Nominatim\\Exceptions\\NominatimException&#45;&gt;\\Exception</title>
<path fill="none" stroke="black" d="M238.378,-183.195C227.168,-179.335 216.217,-174.1 207,-167 161.887,-132.249 181.502,-97.958 143,-56 136.946,-49.4028 129.553,-43.3126 122.189,-38.0285"/>
<polygon fill="none" stroke="black" points="123.877,-34.9436 113.64,-32.2136 119.94,-40.7317 123.877,-34.9436"/>
</g>
<!-- \\maxh\\Nominatim\\Exceptions\\InvalidParameterException -->
<g id="node2" class="node"><title>\\maxh\\Nominatim\\Exceptions\\InvalidParameterException</title>
<polygon fill="none" stroke="black" points="400,-158 215,-158 215,-122 400,-122 400,-158"/>
<text text-anchor="middle" x="307.5" y="-137.2" font-family="Courier,monospace" font-size="11.00">InvalidParameterException</text>
</g>
<!-- \\maxh\\Nominatim\\Exceptions\\InvalidParameterException&#45;&gt;\\Exception -->
<g id="edge4" class="edge"><title>\\maxh\\Nominatim\\Exceptions\\InvalidParameterException&#45;&gt;\\Exception</title>
<path fill="none" stroke="black" d="M214.69,-121.783C212.063,-120.6 209.493,-119.341 207,-118 172.124,-99.2373 173.564,-81.1844 143,-56 135.898,-50.1479 127.929,-44.2527 120.324,-38.9096"/>
<polygon fill="none" stroke="black" points="121.858,-35.7162 111.637,-32.9266 117.887,-41.4812 121.858,-35.7162"/>
</g>
<!-- \\maxh\\Nominatim\\Nominatim -->
<g id="node3" class="node"><title>\\maxh\\Nominatim\\Nominatim</title>
<polygon fill="none" stroke="black" points="346,-338 269,-338 269,-302 346,-302 346,-338"/>
<text text-anchor="middle" x="307.5" y="-317.2" font-family="Courier,monospace" font-size="11.00">Nominatim</text>
</g>
<!-- \\maxh\\Nominatim\\Search -->
<g id="node4" class="node"><title>\\maxh\\Nominatim\\Search</title>
<polygon fill="none" stroke="black" points="336,-284 279,-284 279,-248 336,-248 336,-284"/>
<text text-anchor="middle" x="307.5" y="-263.2" font-family="Courier,monospace" font-size="11.00">Search</text>
</g>
<!-- \\maxh\\Nominatim\\QueryInterface -->
<g id="node6" class="node"><title>\\maxh\\Nominatim\\QueryInterface</title>
<polygon fill="none" stroke="black" points="143,-338 32,-338 32,-302 143,-302 143,-338"/>
<text text-anchor="middle" x="87.5" y="-317.2" font-family="Courier,monospace" font-size="11.00">QueryInterface</text>
</g>
<!-- \\maxh\\Nominatim\\Search&#45;&gt;\\maxh\\Nominatim\\QueryInterface -->
<g id="edge1" class="edge"><title>\\maxh\\Nominatim\\Search&#45;&gt;\\maxh\\Nominatim\\QueryInterface</title>
<path fill="none" stroke="black" stroke-dasharray="1,5" d="M278.89,-272.839C247.388,-280.642 194.813,-293.666 152.883,-304.052"/>
<polygon fill="none" stroke="black" points="151.886,-300.693 143.021,-306.495 153.569,-307.488 151.886,-300.693"/>
</g>
<!-- \\maxh\\Nominatim\\Reverse -->
<g id="node5" class="node"><title>\\maxh\\Nominatim\\Reverse</title>
<polygon fill="none" stroke="black" points="339.5,-392 275.5,-392 275.5,-356 339.5,-356 339.5,-392"/>
<text text-anchor="middle" x="307.5" y="-371.2" font-family="Courier,monospace" font-size="11.00">Reverse</text>
</g>
<!-- \\maxh\\Nominatim\\Reverse&#45;&gt;\\maxh\\Nominatim\\QueryInterface -->
<g id="edge2" class="edge"><title>\\maxh\\Nominatim\\Reverse&#45;&gt;\\maxh\\Nominatim\\QueryInterface</title>
<path fill="none" stroke="black" stroke-dasharray="1,5" d="M275.266,-366.263C243.507,-358.396 193.369,-345.977 153.034,-335.986"/>
<polygon fill="none" stroke="black" points="153.821,-332.575 143.273,-333.568 152.138,-339.369 153.821,-332.575"/>
</g>
<!-- \\maxh\\Nominatim\\QueryTrait -->
<g id="node7" class="node"><title>\\maxh\\Nominatim\\QueryTrait</title>
<polygon fill="none" stroke="black" points="349.5,-104 265.5,-104 265.5,-68 349.5,-68 349.5,-104"/>
<text text-anchor="middle" x="307.5" y="-83.2" font-family="Courier,monospace" font-size="11.00">QueryTrait</text>
</g>
</g>
</svg>
